<svg id="Layer_1" data-name="Layer 1" xmlns="http://www.w3.org/2000/svg" viewBox="0 0 896 1079.19"><defs><style>.cls-1{stroke:#fff;}.cls-1,.cls-4{stroke-miterlimit:10;}.cls-2,.cls-4{fill:#fff;}.cls-3{fill:#ed1e79;}.cls-4,.cls-5{stroke:#000;}.cls-5{fill:none;stroke-width:2px;}.cls-6{fill:#bb0087;}</style></defs><title>andersMag</title><rect id="_maRechthoek_" data-name="&lt;maRechthoek&gt;" class="cls-1" x="488.5" y="756.5" width="308" height="308"/><g id="_buiten_" data-name="&lt;buiten&gt;"><rect class="cls-2" x="2" y="2" width="794" height="749"/><path d="M1136,381v745H346V381h790m4-4H342v753h798V377Z" transform="translate(-342 -377)"/></g><path id="_m" data-name="&lt;m" class="cls-3" d="M904.18,1420V1296.87h37.2l22.34,84,22.09-84h37.29V1420H1000v-96.92L975.56,1420H951.63l-24.36-96.92V1420Z" transform="translate(-342 -377)"/><path id="_aMa_" data-name="&lt;aMa&gt;" class="cls-4" d="M1066.26,1358l-21.42-3.86q3.62-12.93,12.43-19.15t26.21-6.21q15.78,0,23.51,3.73t10.88,9.49q3.15,5.76,3.15,21.12l-.25,27.55q0,11.76,1.13,17.34a50.7,50.7,0,0,0,4.24,12h-23.35c-.61-1.56-1.37-3.89-2.26-7-.4-1.4-.68-2.32-.84-2.77a42.69,42.69,0,0,1-12.94,8.82,37,37,0,0,1-14.7,2.94q-13.77,0-21.71-7.48a24.83,24.83,0,0,1-7.93-18.89,25.32,25.32,0,0,1,3.61-13.48,23.59,23.59,0,0,1,10.12-9.07q6.51-3.15,18.77-5.5,16.54-3.1,22.93-5.8v-2.35q0-6.81-3.36-9.7t-12.68-2.9q-6.3,0-9.83,2.48T1066.26,1358Zm31.58,19.15a147.55,147.55,0,0,1-14.36,3.61q-9.82,2.1-12.85,4.12-4.62,3.27-4.62,8.31a11.59,11.59,0,0,0,3.69,8.57,12.91,12.91,0,0,0,9.41,3.61,20.47,20.47,0,0,0,12.18-4.2,14.77,14.77,0,0,0,5.62-7.81q.93-3,.93-11.51Z" transform="translate(-342 -377)"/><path id="_g_" data-name="&lt;g&gt;" d="M1154.1,1425.87l27,3.28c.44,3.13,1.48,5.29,3.1,6.46q3.36,2.52,10.59,2.52,9.23,0,13.85-2.77a11.47,11.47,0,0,0,4.71-6c.72-2,1.09-5.57,1.09-10.84v-13q-10.59,14.45-26.71,14.44-18,0-28.47-15.2-8.23-12-8.23-29.9,0-22.42,10.79-34.26a34.82,34.82,0,0,1,26.84-11.84q16.53,0,27.29,14.52V1330.8H1238v80q0,15.78-2.61,23.6a29.28,29.28,0,0,1-7.3,12.26,32.31,32.31,0,0,1-12.56,7q-7.85,2.52-19.86,2.52-22.68,0-32.17-7.77a24.39,24.39,0,0,1-9.49-19.69C1154,1427.94,1154,1427,1154.1,1425.87Zm21.08-52.32q0,14.19,5.5,20.78a17,17,0,0,0,13.56,6.6,18.79,18.79,0,0,0,14.62-6.76q6-6.76,6-20,0-13.86-5.71-20.58a18.16,18.16,0,0,0-14.45-6.72,17.42,17.42,0,0,0-14,6.59Q1175.18,1360,1175.18,1373.55Z" transform="translate(-342 -377)"/><path id="_aAnders_" data-name="&lt;aAnders&gt;" class="cls-5" d="M588.86,1045.1l-21.44-3.75q3.54-13,12.33-19.21t26.18-6.35q15.78-.07,23.53,3.62t10.92,9.43q3.18,5.75,3.26,21.11l-.11,27.55q.06,11.76,1.22,17.33a49.89,49.89,0,0,0,4.3,12l-23.35.12c-.62-1.56-1.39-3.89-2.3-7-.4-1.4-.69-2.32-.86-2.77a42.65,42.65,0,0,1-12.88,8.89,37.21,37.21,0,0,1-14.69,3q-13.77.08-21.74-7.37a24.83,24.83,0,0,1-8-18.85,25.4,25.4,0,0,1,3.55-13.5,23.52,23.52,0,0,1,10.07-9.12q6.5-3.18,18.74-5.6,16.53-3.18,22.9-5.91v-2.35q0-6.8-3.41-9.68t-12.69-2.84q-6.3,0-9.82,2.53T588.86,1045.1Zm31.67,19q-4.53,1.53-14.34,3.69T593.36,1072q-4.61,3.29-4.58,8.33a11.56,11.56,0,0,0,3.74,8.55,12.87,12.87,0,0,0,9.42,3.56,20.42,20.42,0,0,0,12.16-4.26,14.74,14.74,0,0,0,5.59-7.83q.9-3,.86-11.52Z" transform="translate(-342 -377)"/><path id="_n_" data-name="&lt;n&gt;" class="cls-5" d="M749.09,1107h-23.6v-45.52q0-14.45-1.51-18.68a13.12,13.12,0,0,0-4.91-6.6,14.11,14.11,0,0,0-8.19-2.35,18.89,18.89,0,0,0-11,3.36,17,17,0,0,0-6.68,8.9q-1.8,5.55-1.8,20.5V1107H667.8V1017.8h21.92v13.1q11.67-15.12,29.39-15.11a35.33,35.33,0,0,1,14.28,2.81,24,24,0,0,1,9.78,7.18,26,26,0,0,1,4.62,9.91c.87,3.69,1.3,9,1.3,15.87Z" transform="translate(-342 -377)"/><path id="_d_" data-name="&lt;d&gt;" class="cls-5" d="M853.83,1107H831.91v-13.1A35.4,35.4,0,0,1,819,1105.27a33.11,33.11,0,0,1-15,3.74q-15.37,0-26.33-12.39t-11-34.56q0-22.68,10.66-34.48t27-11.79q15,0,25.87,12.42V983.87h23.6Zm-63-46.53q0,14.28,3.95,20.66,5.72,9.26,16,9.24,8.14,0,13.85-6.93t5.71-20.7q0-15.36-5.54-22.13a17.56,17.56,0,0,0-14.19-6.76,17.74,17.74,0,0,0-14.07,6.68Q790.84,1047.2,790.84,1060.46Z" transform="translate(-342 -377)"/><path id="_e_" data-name="&lt;e&gt;" class="cls-5" d="M928.74,1078.61l23.52,3.94q-4.53,12.95-14.32,19.7T913.46,1109q-23.26,0-34.43-15.2-8.82-12.18-8.82-30.74,0-22.17,11.59-34.73t29.31-12.55q19.9,0,31.41,13.14t11,40.27H894.39q.25,10.5,5.72,16.33a17.81,17.81,0,0,0,13.6,5.84,14.47,14.47,0,0,0,9.32-3Q926.81,1085.32,928.74,1078.61Zm1.35-23.86q-.26-10.24-5.29-15.58a17,17,0,0,0-25,.3q-5,5.63-5,15.28Z" transform="translate(-342 -377)"/><path id="_r_" data-name="&lt;r&gt;" class="cls-5" d="M995.34,1107h-23.6V1017.8h21.92v12.68q5.63-9,10.12-11.84a18.67,18.67,0,0,1,10.21-2.85,30,30,0,0,1,15.54,4.45l-7.31,20.57q-6-3.86-11.09-3.86a13.12,13.12,0,0,0-8.4,2.73q-3.43,2.73-5.41,9.87t-2,29.9Z" transform="translate(-342 -377)"/><path id="_s_" data-name="&lt;s&gt;" class="cls-5" d="M1031.37,1081.54l23.69-3.61q1.5,6.9,6.13,10.46t12.93,3.57q9.15,0,13.77-3.36a7.51,7.51,0,0,0,3.11-6.3,6.2,6.2,0,0,0-1.68-4.45c-1.17-1.12-3.81-2.15-7.89-3.11q-28.56-6.3-36.2-11.5a23,23,0,0,1-10.58-20.08q0-11.58,9.15-19.48t28.39-7.89q18.3,0,27.21,6t12.26,17.63l-22.25,4.12a13.81,13.81,0,0,0-5.42-8q-4-2.77-11.38-2.77-9.33,0-13.35,2.6a5.59,5.59,0,0,0-2.69,4.79,5.19,5.19,0,0,0,2.35,4.28q3.19,2.36,22,6.64t26.32,10.5q7.39,6.3,7.4,17.55,0,12.27-10.25,21.08t-30.32,8.82q-18.22,0-28.85-7.39A34.1,34.1,0,0,1,1031.37,1081.54Z" transform="translate(-342 -377)"/><path class="cls-6" d="M740.6,607.06c0-57,47.65-103.06,106.53-103.06A103.74,103.74,0,0,1,951,607.72c0,151-176.45,167.56-210.4,273.28-34-105.72-210.41-122.23-210.41-273.28A103.74,103.74,0,0,1,634.06,504C693,504,740.6,550.1,740.6,607.06Z" transform="translate(-342 -377)"/></svg>